<?xml version="1.0" encoding="UTF-8" standalone="no"?>
<svg
   xmlns:dc="http://purl.org/dc/elements/1.1/"
   xmlns:cc="http://creativecommons.org/ns#"
   xmlns:rdf="http://www.w3.org/1999/02/22-rdf-syntax-ns#"
   xmlns:svg="http://www.w3.org/2000/svg"
   xmlns="http://www.w3.org/2000/svg"
   xmlns:sodipodi="http://sodipodi.sourceforge.net/DTD/sodipodi-0.dtd"
   xmlns:inkscape="http://www.inkscape.org/namespaces/inkscape"
   height="20"
   id="Layer_1"
   version="1.1"
   viewBox="0 0 30 20"
   width="30"
   xml:space="preserve"
   sodipodi:docname="burger-menu.svg"
   inkscape:version="0.92.3 (2405546, 2018-03-11)"><metadata
     id="metadata9"><rdf:RDF><cc:Work
         rdf:about=""><dc:format>image/svg+xml</dc:format><dc:type
           rdf:resource="http://purl.org/dc/dcmitype/StillImage" /><dc:title></dc:title></cc:Work></rdf:RDF></metadata><defs
     id="defs7" /><sodipodi:namedview
     pagecolor="#ffffff"
     bordercolor="#666666"
     borderopacity="1"
     objecttolerance="10"
     gridtolerance="10"
     guidetolerance="10"
     inkscape:pageopacity="0"
     inkscape:pageshadow="2"
     inkscape:window-width="1780"
     inkscape:window-height="1046"
     id="namedview5"
     showgrid="false"
     inkscape:zoom="18.029409"
     inkscape:cx="31.322876"
     inkscape:cy="8.8386778"
     inkscape:window-x="-11"
     inkscape:window-y="-11"
     inkscape:window-maximized="1"
     inkscape:current-layer="Layer_1" /><path
     d="M 2.1428571,4 H 27.857143 C 29.04,4 30,3.104 30,2 30,0.896 29.04,0 27.857143,0 H 2.1428571 C 0.96,0 0,0.896 0,2 0,3.104 0.96,4 2.1428571,4 Z M 27.857143,7.9999999 H 2.1428571 C 0.96,7.9999999 0,8.8959999 0,9.9999999 0,11.104 0.96,12 2.1428571,12 H 27.857143 C 29.04,12 30,11.104 30,9.9999999 c 0,-1.104 -0.96,-2 -2.142857,-2 z m 0,8.0000001 H 2.1428571 C 0.96,16 0,16.896 0,18 c 0,1.104 0.96,2 2.1428571,2 H 27.857143 C 29.04,20 30,19.104 30,18 30,16.896 29.04,16 27.857143,16 Z"
     id="path2"
     style="fill:#f8f8f8;fill-opacity:1;stroke-width:1.03509831"
     inkscape:connector-curvature="0" /></svg>