<svg xmlns="http://www.w3.org/2000/svg" style="display:none">

  <symbol id="logo" viewBox="0 0 106 31"><title>Slides Framework</title><path d="m 14.863294,42.810142 c -0.11583,-1.7875 -0.297141,-4.531537 -0.402915,-6.09786 l -0.192315,-2.84786 -2.386725,0.801803 c -3.2654384,1.097 -7.1092281,1.18544 -8.4443215,0.194294 -1.5858707,-1.17732 -1.3123531,-3.565797 0.65469,-5.717044 1.5607414,-1.706896 2.0829904,-0.4507 0.7275424,1.75 -0.4516723,0.733334 -0.821991,1.674546 -0.8229304,2.091584 -0.00385,1.710726 3.5254961,1.775763 7.7705855,0.143195 L 14.16128,32.20743 14.038586,26.383786 c -0.06748,-3.203004 -0.1801,-5.886261 -0.250262,-5.962794 -0.07016,-0.07653 -0.83995,-0.0015 -1.710639,0.166667 l -1.583072,0.305816 0.121322,4.844324 c 0.09964,3.97838 0.03306,4.917576 -0.37244,5.254111 -1.0179434,0.844817 -1.3908674,-0.407891 -1.5290414,-5.136285 l -0.1302,-4.455519 -0.878154,0.210244 c -0.482984,0.115633 -0.9353767,0.258864 -1.0053157,0.31829 -0.263231,0.223663 -1.372839,-0.576442 -1.372839,-0.989913 0,-0.237211 0.769065,-0.791503 1.7090317,-1.23176 l 1.709034,-0.800468 -0.179281,-2.615649 c -0.0986,-1.438606 -0.259572,-2.69594 -0.357706,-2.794074 -0.214927,-0.214927 -3.4940527,0.539222 -3.682244,0.84686 -0.072844,0.119079 0.016037,2.820588 0.1975133,6.003355 0.343372,6.022113 0.184408,7.110505 -0.881025,6.032199 C 3.4916632,26.023336 3.3011524,24.541046 3.1307073,20.835037 3.0027524,18.052897 2.7948404,15.609584 2.6686808,15.405453 2.5165097,15.159235 2.1681071,15.134746 1.6336223,15.332693 -0.3778789,16.077674 -0.5963604,14.539816 1.3390213,13.259041 L 2.6834309,12.369353 2.4531496,6.184676 2.2228684,0 3.0254068,0.113402 C 3.8245115,0.226319 3.8288095,0.249299 4.0299712,5.4843856 4.1410855,8.3760603 4.3198962,10.829871 4.4273286,10.937304 4.5347606,11.044736 6.1366599,9.663513 7.9871066,7.8679203 10.253979,5.668245 11.592373,4.0760473 12.08975,2.9872814 12.655606,1.7486134 12.983588,1.3934729 13.494613,1.466088 14.893247,1.6648294 14.058884,3.8597816 11.36148,7.077707 l -0.992674,1.1842316 2.22957,-0.581683 c 1.226264,-0.3199253 3.323889,-0.5903296 4.661389,-0.600898 2.175742,-0.017193 2.521336,0.070303 3.281926,0.8308924 1.009836,1.0098366 0.895416,1.9434043 -0.484804,3.955547 -0.948892,1.383336 -4.536064,4.616068 -6.742198,6.076018 -0.726041,0.480472 -1.319979,0.891153 -1.31986,0.912623 1.18e-4,0.02147 1.312618,0.04157 2.916666,0.04467 2.4777,0.0048 3.140171,0.130152 4.403551,0.833333 1.84955,1.029436 3.015328,2.694823 3.00558,4.293661 -0.0147,2.411329 -2.161365,5.825045 -4.894003,7.782655 l -1.514162,1.084717 0.212443,4 c 0.116844,2.2 0.304697,5.1625 0.417451,6.583334 l 0.205009,2.583334 h -0.836736 c -0.821812,0 -0.840491,-0.05796 -1.047334,-3.25 z m 4.336725,-15.359065 c 2.343846,-3.863446 1.573966,-6.172646 -2.300257,-6.899454 L 15.66128,20.319282 v 4.676501 c 0,5.800499 0.06449,6.020122 1.456836,4.960998 0.57374,-0.436432 1.510597,-1.563999 2.081903,-2.505704 z m -6.442856,-11.199084 1.929216,-1.457054 -0.890836,-0.700731 c -0.489959,-0.385403 -1.133107,-0.70278 -1.429216,-0.705283 -0.296109,-0.0025 -0.87588,-0.095 -1.28838,-0.205544 -0.726349,-0.194654 -0.75,-0.126183 -0.75,2.171218 0,1.304716 0.1125,2.368214 0.25,2.363329 0.1375,-0.0049 1.118147,-0.664556 2.179216,-1.465935 z m 5.48745,-4.948384 c 0.595834,-0.723558 1.083334,-1.6181484 1.083334,-1.98798 0,-0.633191 -0.160439,-0.662899 -2.75,-0.509208 -3.583219,0.2126646 -6.377167,1.1422649 -6.523184,2.170389 -0.09437,0.66446 0.03869,0.750835 1.166667,0.75732 1.315577,0.0076 3.851295,0.976717 4.252037,1.62513 0.292052,0.472551 1.3127,-0.284571 2.771146,-2.055651 z m -9.9166674,0.08987 c 0,-0.183336 -0.06615,-0.333336 -0.146994,-0.333336 -0.08085,0 -0.239699,0.15 -0.353006,0.333333 -0.113306,0.183334 -0.04716,0.333334 0.146995,0.333334 0.194153,0 0.353005,-0.15 0.353005,-0.333334 z" />
		 <g
				style="fill:#ffffff;fill-opacity:1"
				id="g7219">
			 <text
					xml:space="preserve"
					style="font-style:normal;font-variant:normal;font-weight:normal;font-stretch:normal;font-size:65.34403992px;line-height:1.25;font-family:'Times New Roman';-inkscape-font-specification:'Times New Roman, ';letter-spacing:0px;word-spacing:0px;fill:#ffffff;fill-opacity:1;stroke:none;stroke-width:0.90755212"
					x="25.570784"
					y="21.063965"
					id="text7213"
					transform="scale(1.0686431,0.93576611)"><tspan
						sodipodi:role="line"
						id="tspan7211"
						x="25.570784"
						y="21.063965"
						style="font-style:normal;font-variant:normal;font-weight:normal;font-stretch:normal;font-size:14.52083397px;font-family:'Microsoft Sans Serif';-inkscape-font-specification:'Microsoft Sans Serif';fill:#ffffff;fill-opacity:1;stroke-width:0.90755212">KB PRODUCTIONS</tspan></text>
		 </g>
		 <text
				transform="scale(1.1092442,0.90151471)"
				id="text7241"
				y="35.626377"
				x="25.071493"
				style="font-style:normal;font-variant:normal;font-weight:normal;font-stretch:normal;font-size:8.40233517px;line-height:1.25;font-family:'Microsoft Sans Serif';-inkscape-font-specification:'Microsoft Sans Serif';letter-spacing:0px;word-spacing:0px;fill:#ffffff;fill-opacity:1;stroke:none;stroke-width:0.63017517;"
				xml:space="preserve"><tspan
					style="fill:#ffffff;fill-opacity:1;stroke-width:0.63017517;"
					y="35.626377"
					x="25.071493"
					id="tspan7239"
					sodipodi:role="line">DIGITAL STORYTELLING</tspan></text></symbol>

  <symbol id="logo-icon" viewBox="0 0 50 41"><title>Slides Framework</title><path d="m 14.863294,42.810142 c -0.11583,-1.7875 -0.297141,-4.531537 -0.402915,-6.09786 l -0.192315,-2.84786 -2.386725,0.801803 c -3.2654384,1.097 -7.1092281,1.18544 -8.4443215,0.194294 -1.5858707,-1.17732 -1.3123531,-3.565797 0.65469,-5.717044 1.5607414,-1.706896 2.0829904,-0.4507 0.7275424,1.75 -0.4516723,0.733334 -0.821991,1.674546 -0.8229304,2.091584 -0.00385,1.710726 3.5254961,1.775763 7.7705855,0.143195 L 14.16128,32.20743 14.038586,26.383786 c -0.06748,-3.203004 -0.1801,-5.886261 -0.250262,-5.962794 -0.07016,-0.07653 -0.83995,-0.0015 -1.710639,0.166667 l -1.583072,0.305816 0.121322,4.844324 c 0.09964,3.97838 0.03306,4.917576 -0.37244,5.254111 -1.0179434,0.844817 -1.3908674,-0.407891 -1.5290414,-5.136285 l -0.1302,-4.455519 -0.878154,0.210244 c -0.482984,0.115633 -0.9353767,0.258864 -1.0053157,0.31829 -0.263231,0.223663 -1.372839,-0.576442 -1.372839,-0.989913 0,-0.237211 0.769065,-0.791503 1.7090317,-1.23176 l 1.709034,-0.800468 -0.179281,-2.615649 c -0.0986,-1.438606 -0.259572,-2.69594 -0.357706,-2.794074 -0.214927,-0.214927 -3.4940527,0.539222 -3.682244,0.84686 -0.072844,0.119079 0.016037,2.820588 0.1975133,6.003355 0.343372,6.022113 0.184408,7.110505 -0.881025,6.032199 C 3.4916632,26.023336 3.3011524,24.541046 3.1307073,20.835037 3.0027524,18.052897 2.7948404,15.609584 2.6686808,15.405453 2.5165097,15.159235 2.1681071,15.134746 1.6336223,15.332693 -0.3778789,16.077674 -0.5963604,14.539816 1.3390213,13.259041 L 2.6834309,12.369353 2.4531496,6.184676 2.2228684,0 3.0254068,0.113402 C 3.8245115,0.226319 3.8288095,0.249299 4.0299712,5.4843856 4.1410855,8.3760603 4.3198962,10.829871 4.4273286,10.937304 4.5347606,11.044736 6.1366599,9.663513 7.9871066,7.8679203 10.253979,5.668245 11.592373,4.0760473 12.08975,2.9872814 12.655606,1.7486134 12.983588,1.3934729 13.494613,1.466088 14.893247,1.6648294 14.058884,3.8597816 11.36148,7.077707 l -0.992674,1.1842316 2.22957,-0.581683 c 1.226264,-0.3199253 3.323889,-0.5903296 4.661389,-0.600898 2.175742,-0.017193 2.521336,0.070303 3.281926,0.8308924 1.009836,1.0098366 0.895416,1.9434043 -0.484804,3.955547 -0.948892,1.383336 -4.536064,4.616068 -6.742198,6.076018 -0.726041,0.480472 -1.319979,0.891153 -1.31986,0.912623 1.18e-4,0.02147 1.312618,0.04157 2.916666,0.04467 2.4777,0.0048 3.140171,0.130152 4.403551,0.833333 1.84955,1.029436 3.015328,2.694823 3.00558,4.293661 -0.0147,2.411329 -2.161365,5.825045 -4.894003,7.782655 l -1.514162,1.084717 0.212443,4 c 0.116844,2.2 0.304697,5.1625 0.417451,6.583334 l 0.205009,2.583334 h -0.836736 c -0.821812,0 -0.840491,-0.05796 -1.047334,-3.25 z m 4.336725,-15.359065 c 2.343846,-3.863446 1.573966,-6.172646 -2.300257,-6.899454 L 15.66128,20.319282 v 4.676501 c 0,5.800499 0.06449,6.020122 1.456836,4.960998 0.57374,-0.436432 1.510597,-1.563999 2.081903,-2.505704 z m -6.442856,-11.199084 1.929216,-1.457054 -0.890836,-0.700731 c -0.489959,-0.385403 -1.133107,-0.70278 -1.429216,-0.705283 -0.296109,-0.0025 -0.87588,-0.095 -1.28838,-0.205544 -0.726349,-0.194654 -0.75,-0.126183 -0.75,2.171218 0,1.304716 0.1125,2.368214 0.25,2.363329 0.1375,-0.0049 1.118147,-0.664556 2.179216,-1.465935 z m 5.48745,-4.948384 c 0.595834,-0.723558 1.083334,-1.6181484 1.083334,-1.98798 0,-0.633191 -0.160439,-0.662899 -2.75,-0.509208 -3.583219,0.2126646 -6.377167,1.1422649 -6.523184,2.170389 -0.09437,0.66446 0.03869,0.750835 1.166667,0.75732 1.315577,0.0076 3.851295,0.976717 4.252037,1.62513 0.292052,0.472551 1.3127,-0.284571 2.771146,-2.055651 z m -9.9166674,0.08987 c 0,-0.183336 -0.06615,-0.333336 -0.146994,-0.333336 -0.08085,0 -0.239699,0.15 -0.353006,0.333333 -0.113306,0.183334 -0.04716,0.333334 0.146995,0.333334 0.194153,0 0.353005,-0.15 0.353005,-0.333334 z"/></symbol>

  <symbol id="close" viewBox="0 0 30 30"><path d="M15 0c-8.3 0-15 6.7-15 15s6.7 15 15 15 15-6.7 15-15-6.7-15-15-15zm5.7 19.3c.4.4.4 1 0 1.4-.2.2-.4.3-.7.3s-.5-.1-.7-.3l-4.3-4.3-4.3 4.3c-.2.2-.4.3-.7.3s-.5-.1-.7-.3c-.4-.4-.4-1 0-1.4l4.3-4.3-4.3-4.3c-.4-.4-.4-1 0-1.4s1-.4 1.4 0l4.3 4.3 4.3-4.3c.4-.4 1-.4 1.4 0s.4 1 0 1.4l-4.3 4.3 4.3 4.3z"/></symbol>

  <symbol id="close-small" viewBox="0 0 11 11"><path d="M6.914 5.5l3.793-3.793c.391-.391.391-1.023 0-1.414s-1.023-.391-1.414 0l-3.793 3.793-3.793-3.793c-.391-.391-1.023-.391-1.414 0s-.391 1.023 0 1.414l3.793 3.793-3.793 3.793c-.391.391-.391 1.023 0 1.414.195.195.451.293.707.293s.512-.098.707-.293l3.793-3.793 3.793 3.793c.195.195.451.293.707.293s.512-.098.707-.293c.391-.391.391-1.023 0-1.414l-3.793-3.793z"/></symbol>

  <symbol id="arrow-left" viewBox="0 0 29 56"><path d="M28.7.3c.4.4.4 1 0 1.4l-26.3 26.3 26.3 26.3c.4.4.4 1 0 1.4-.4.4-1 .4-1.4 0l-27-27c-.4-.4-.4-1 0-1.4l27-27c.3-.3 1-.4 1.4 0z"/></symbol>

  <symbol id="arrow-right" viewBox="0 0 29 56"><path d="M.3 55.7c-.4-.4-.4-1 0-1.4l26.3-26.3-26.3-26.3c-.4-.4-.4-1 0-1.4.4-.4 1-.4 1.4 0l27 27c.4.4.4 1 0 1.4l-27 27c-.3.3-1 .4-1.4 0z"/></symbol>

  <symbol id="back" viewBox="0 0 20 20"><path d="M2.3 10.7l5 5c.4.4 1 .4 1.4 0s.4-1 0-1.4l-3.3-3.3h11.6c.6 0 1-.4 1-1s-.4-1-1-1h-11.6l3.3-3.3c.4-.4.4-1 0-1.4-.2-.2-.4-.3-.7-.3s-.5.1-.7.3l-5 5c-.2.2-.3.5-.3.7 0 .2.1.5.3.7z"/></symbol>

  <symbol id="menu" viewBox="0 0 18 18"><path d="M16 5h-14c-.6 0-1-.4-1-1 0-.5.4-1 1-1h14c.5 0 1 .4 1 1s-.4 1-1 1zm-14 5h14c.5 0 1-.4 1-1 0-.5-.4-1-1-1h-14c-.6 0-1 .4-1 1s.4 1 1 1zm14 3h-14c-.5 0-1 .4-1 1 0 .5.4 1 1 1h14c.5 0 1-.4 1-1s-.4-1-1-1z"/></symbol>

  <symbol id="share" viewBox="0 0 18 18"><path d="M16 8c-.6 0-1 .4-1 1v6h-12v-6c0-.6-.4-1-1-1s-1 .4-1 1v6c0 1.1.9 2 2 2h12c1.1 0 2-.9 2-2v-6c0-.6-.4-1-1-1zm-2.3-2.3c.4-.4.4-1 0-1.4l-4-4c-.4-.4-1-.4-1.4 0l-4 4c-.4.4-.4 1 0 1.4s1 .4 1.4 0l2.3-2.3v7.6c0 .6.4 1 1 1s1-.4 1-1v-7.6l2.3 2.3c.4.4 1 .4 1.4 0z"/></symbol>

  <symbol id="arrow-down" viewBox="0 0 24 24"><path d="M12 18c-.2 0-.5-.1-.7-.3l-11-10c-.4-.4-.4-1-.1-1.4.4-.4 1-.4 1.4-.1l10.4 9.4 10.3-9.4c.4-.4 1-.3 1.4.1.4.4.3 1-.1 1.4l-11 10c-.1.2-.4.3-.6.3z"/></symbol>

  <symbol id="arrow-up" viewBox="0 0 24 24"><path d="M11.9 5.9c.2 0 .5.1.7.3l11 10c.4.4.4 1 .1 1.4-.4.4-1 .4-1.4.1l-10.4-9.4-10.3 9.4c-.4.4-1 .3-1.4-.1-.4-.4-.3-1 .1-1.4l11-10c.1-.2.4-.3.6-.3z"/></symbol>

  <symbol id="arrow-top" viewBox="0 0 18 18"><path d="M15.7 7.3l-6-6c-.4-.4-1-.4-1.4 0l-6 6c-.4.4-.4 1 0 1.4.4.4 1 .4 1.4 0l4.3-4.3v11.6c0 .6.4 1 1 1s1-.4 1-1v-11.6l4.3 4.3c.2.2.4.3.7.3s.5-.1.7-.3c.4-.4.4-1 0-1.4z"/></symbol>

  <symbol id="play" viewBox="0 0 30 30"><path d="M7 30v-30l22 15z"/></symbol>

  <symbol id="chat" viewBox="0 0 18 18"><path d="M5,17c-0.2,0-0.3,0-0.4-0.1C4.2,16.7,4,16.4,4,16v-2H2c-1.1,0-2-0.9-2-2V3c0-1.1,0.9-2,2-2h14c1.1,0,2,0.9,2,2v9 c0,1.1-0.9,2-2,2H9.3l-3.7,2.8C5.4,16.9,5.2,17,5,17z M2,12h3.5C5.8,12,6,12.2,6,12.5V14l2.4-1.8C8.6,12.1,8.8,12,9,12h7V3H2V12z M13,7H5C4.4,7,4,6.6,4,6s0.4-1,1-1h8c0.6,0,1,0.4,1,1S13.6,7,13,7z M13,10H5c-0.6,0-1-0.4-1-1s0.4-1,1-1h8c0.6,0,1,0.4,1,1 S13.6,10,13,10z"/></symbol>

  <symbol id="mail" viewBox="0 0 18 18"><path d="M16 2h-14c-1.1 0-2 .9-2 2v10c0 1.1.9 2 2 2h14c1.1 0 2-.9 2-2v-10c0-1.1-.9-2-2-2zm0 2v.5l-7 4.3-7-4.4v-.4h14zm-14 10v-7.2l6.5 4c.1.1.3.2.5.2s.4-.1.5-.2l6.5-4v7.2h-14z"/></symbol>

  <symbol id="sound-on" viewBox="0 0 18 18"><path d="M8.5,0.1C8.1-0.1,7.7,0,7.4,0.2L3.7,3H2C0.9,3,0,3.9,0,5v6c0,1.1,0.9,2,2,2h1.7l3.7,2.8C7.6,15.9,7.8,16,8,16 c0.2,0,0.3,0,0.4-0.1C8.8,15.7,9,15.4,9,15V1C9,0.6,8.8,0.3,8.5,0.1z M7,13l-2.4-1.8C4.4,11.1,4.2,11,4,11l-2,0l0-6h2 c0.2,0,0.4-0.1,0.6-0.2L7,3V13z M11.7,9.9l0.7,1.9C13.9,11.2,15,9.7,15,8c0-1.7-1.1-3.2-2.7-3.8l-0.7,1.9C12.5,6.4,13,7.2,13,8C13,8.9,12.5,9.6,11.7,9.9z M12.2,1.1l-0.3,2C14.3,3.5,16,5.6,16,8s-1.8,4.5-4.2,4.9l0.3,2C15.6,14.3,18,11.4,18,8C18,4.6,15.6,1.7,12.2,1.1z"/></symbol>

  <symbol id="sound-off" viewBox="0 0 18 18"><path d="M15.9,8l1.8-1.8c0.4-0.4,0.4-1,0-1.4s-1-0.4-1.4,0l-1.8,1.8l-1.8-1.8c-0.4-0.4-1-0.4-1.4,0s-0.4,1,0,1.4L13.1,8l-1.8,1.8 c-0.4,0.4-0.4,1,0,1.4c0.2,0.2,0.5,0.3,0.7,0.3s0.5-0.1,0.7-0.3l1.8-1.8l1.8,1.8c0.2,0.2,0.5,0.3,0.7,0.3s0.5-0.1,0.7-0.3 c0.4-0.4,0.4-1,0-1.4L15.9,8z M8.5,0.1C8.1-0.1,7.7,0,7.4,0.2L3.7,3H2C0.9,3,0,3.9,0,5v6c0,1.1,0.9,2,2,2h1.7l3.7,2.8C7.6,15.9,7.8,16,8,16 c0.2,0,0.3,0,0.4-0.1C8.8,15.7,9,15.4,9,15V1C9,0.6,8.8,0.3,8.5,0.1z M7,13l-2.4-1.8C4.4,11.1,4.2,11,4,11l-2,0l0-6h2 c0.2,0,0.4-0.1,0.6-0.2L7,3V13z"/></symbol>

  <!-- social -->
  <symbol id="apple" viewBox="-1 1 24 24"><path d="M17.6 13.8c0-3 2.5-4.5 2.6-4.6-1.4-2.1-3.6-2.3-4.4-2.4-1.9-.2-3.6 1.1-4.6 1.1-.9 0-2.4-1.1-4-1-2 0-3.9 1.2-5 3-2.1 3.7-.5 9.1 1.5 12.1 1 1.5 2.2 3.1 3.8 3 1.5-.1 2.1-1 3.9-1s2.4 1 4 1 2.7-1.5 3.7-2.9c1.2-1.7 1.6-3.3 1.7-3.4-.1-.1-3.2-1.3-3.2-4.9zm-3.1-9c.8-1 1.4-2.4 1.2-3.8-1.2 0-2.7.8-3.5 1.8-.8.9-1.5 2.3-1.3 3.7 1.4.1 2.8-.7 3.6-1.7z"/></symbol>

  <symbol id="dribbble" viewBox="0 0 24 24"><path d="M12 0c-6.7 0-12 5.3-12 12s5.3 12 12 12 12-5.3 12-12-5.3-12-12-12zm7.9 5.7c1.3 1.7 2.1 3.9 2.3 6.1-.4-.1-2.4-.4-4.7-.4-.8 0-1.5 0-2.3.1 0-.1-.1-.3-.3-.5l-.7-1.5c3.7-1.4 5.3-3.4 5.7-3.8zm-7.9-3.8c2.5 0 4.9.9 6.7 2.5-.3.4-1.9 2.3-5.2 3.6-1.6-2.9-3.3-5.3-3.7-5.9.6-.1 1.4-.2 2.2-.2zm-4.4 1c.4.6 2.1 3 3.7 5.8-4.4 1.2-8.2 1.2-9.2 1.2h-.1c.8-3.1 2.9-5.6 5.6-7zm-5.7 9.1v-.3h.3c1.2 0 5.6-.1 10.1-1.5l.8 1.6c-.1 0-.3 0-.4.1-5.1 1.6-7.9 6-8.3 6.7-1.6-1.7-2.5-4.1-2.5-6.6zm10.1 10.1c-2.3 0-4.4-.8-6.1-2.1.3-.5 2.4-4.4 7.9-6.3 1.3 3.6 2 6.7 2.1 7.6-1.2.6-2.6.8-3.9.8zm5.7-1.8c-.1-.8-.7-3.6-2-7.1.7-.1 1.3-.1 2-.1 2.1 0 3.7.4 4.1.5-.3 2.8-1.8 5.2-4.1 6.7z"/></symbol>

  <symbol id="facebook" viewBox="0 0 24 24"><path d="M24 1.3v21.3c0 .7-.6 1.3-1.3 1.3h-6.1v-9.3h3.1l.5-3.6h-3.6v-2.2c0-1.1.3-1.8 1.8-1.8h1.9v-3.2c-.3 0-1.5-.1-2.8-.1-2.8 0-4.7 1.7-4.7 4.8v2.7h-3.1v3.6h3.1v9.2h-11.5c-.7 0-1.3-.6-1.3-1.3v-21.4c0-.7.6-1.3 1.3-1.3h21.3c.8 0 1.4.6 1.4 1.3z"/></symbol>

  <symbol id="facebook2" viewBox="0 0 512 512"><path d="M288 176v-64c0-17.664 14.336-32 32-32h32v-80h-64c-53.024 0-96 42.976-96 96v80h-64v80h64v256h96v-256h64l32-80h-96z"/></symbol>

  <symbol id="fb-like" viewBox="0 0 20 20"><path d="M0 8v12h5v-12h-5zm2.5 10.8c-.4 0-.8-.3-.8-.8 0-.4.3-.8.8-.8s.8.3.8.8c0 .4-.4.8-.8.8zm3.5-.8h9.5c1.1 0 1.7-1 1.7-1.7 0-.3-.4-1-.4-1 1.4-.3 1.7-1.2 1.7-1.7-.1-.5-.3-.9-.5-1 1-.4 1.5-1.1 1.4-1.9-.1-.8-1-1.5-1-1.5 1-.6.9-1.5.9-1.5-.3-1.3-1.5-1.7-1.7-1.7h-5.6s.3-.5.3-2.4-1.3-3.6-2.6-3.6c0 0-.7.1-1 .3v3.5l-2.7 4.4v9.8z"/></symbol>

  <symbol id="googlePlus" viewBox="0 1 24 24"><path d="M7.8 13.5h4.6c-.6 2-2.5 3.4-4.6 3.4-2.7 0-4.9-2.2-4.9-4.9s2.2-4.9 4.9-4.9c1.1 0 2.1.3 3 1l1.8-2.4c-1.4-1.1-3-1.6-4.8-1.6-4.3 0-7.9 3.5-7.9 7.9s3.5 7.9 7.9 7.9 7.9-3.5 7.9-7.9v-1.5h-7.9v3zM21.7 11v-2.2h-2v2.2h-2.2v2h2.2v2.2h2v-2.2h2.2v-2z"/></symbol>

  <symbol id="instagram" viewBox="0 0 20 20"><circle cx="10" cy="10" r="3.3"/><path d="M13,0H7C2.2,0,0,2.2,0,7v6c0,4.8,2.1,7,7,7h6c4.8,0,7-2.2,7-7V7C20,2.2,17.9,0,13,0z M10,15.1c-2.8,0-5.1-2.3-5.1-5.1 S7.2,4.9,10,4.9s5.1,2.3,5.1,5.1S12.8,15.1,10,15.1z M15.3,5.9c-0.7,0-1.2-0.5-1.2-1.2c0-0.7,0.5-1.2,1.2-1.2s1.2,0.5,1.2,1.2 C16.5,5.3,16,5.9,15.3,5.9z"/></symbol>

  <symbol id="behance" viewBox="0 0 511.958 511.958"><path d="M210.624 240.619c10.624-5.344 18.656-11.296 24.16-17.728 9.792-11.584 14.624-26.944 14.624-45.984 0-18.528-4.832-34.368-14.496-47.648-16.128-21.632-43.424-32.704-82.016-33.28h-152.896v312.096h142.56c16.064 0 30.944-1.376 44.704-4.192 13.76-2.848 25.664-8.064 35.744-15.68 8.96-6.624 16.448-14.848 22.4-24.544 9.408-14.656 14.112-31.264 14.112-49.76 0-17.92-4.128-33.184-12.32-45.728-8.288-12.544-20.448-21.728-36.576-27.552zm-147.552-90.432h68.864c15.136 0 27.616 1.632 37.408 4.864 11.328 4.704 16.992 14.272 16.992 28.864 0 13.088-4.32 22.24-12.864 27.392-8.608 5.152-19.776 7.744-33.472 7.744h-76.928v-68.864zm108.896 198.24c-7.616 3.68-18.336 5.504-32.064 5.504h-76.832v-83.232h77.888c13.568.096 24.128 1.888 31.68 5.248 13.44 6.08 20.128 17.216 20.128 33.504 0 19.2-6.912 32.128-20.8 38.976zM327.168 110.539h135.584v38.848h-135.584zM509.856 263.851c-2.816-18.08-9.024-33.984-18.688-47.712-10.592-15.552-24.032-26.944-40.384-34.144-16.288-7.232-34.624-10.848-55.04-10.816-34.272 0-62.112 10.72-83.648 32-21.472 21.344-32.224 52.032-32.224 92.032 0 42.656 11.872 73.472 35.744 92.384 23.776 18.944 51.232 28.384 82.4 28.384 37.728 0 67.072-11.232 88.032-33.632 13.408-14.144 20.992-28.064 22.656-41.728h-62.464c-3.616 6.752-7.808 12.032-12.608 15.872-8.704 7.04-20.032 10.56-33.92 10.56-13.216 0-24.416-2.912-33.76-8.704-15.424-9.28-23.488-25.536-24.512-48.672h170.464c.256-19.936-.384-35.264-2.048-45.824zm-166.88 5.984c2.24-15.008 7.68-26.912 16.32-35.712 8.64-8.768 20.864-13.184 36.512-13.216 14.432 0 26.496 4.128 36.32 12.416 9.696 8.352 15.168 20.48 16.288 36.512h-105.44z"/></symbol>

  <symbol id="linkedin" viewBox="0 0 24 24"><path d="M5.9 21.9h-4.7v-14.2h4.7v14.2zm-2.3-16.1c-1.6 0-2.6-1.1-2.6-2.5s1-2.5 2.7-2.5c1.6 0 2.6 1 2.6 2.5-.1 1.4-1.2 2.5-2.7 2.5zm19.2 16.1h-4.7v-7.6c0-2-.7-3.3-2.3-3.3-1.3 0-2.1.9-2.5 1.7-.1.3-.1.8-.1 1.2v7.9h-4.7v-14.1h4.7v2c.7-.9 1.7-2.3 4.3-2.3 3.1 0 5.5 2.1 5.5 6.4v8.2h-.2z"/></symbol>

  <symbol id="medium" viewBox="0 0 130.8 104"><path d="M15.5 21.2c.2-1.6-.5-3.2-1.7-4.3l-12.1-14.7v-2.2h38l29.3 64.4 25.8-64.4h36.2v2.2l-10.5 10c-.9.7-1.3 1.8-1.2 2.9v73.7c0 1.1.3 2.2 1.2 2.9l10.2 10v2.2h-51.3v-2.2l10.6-10.2c1-1 1-1.3 1-2.9v-59.6l-29.4 74.7h-4l-34.2-74.7v50.3c0 2.2.4 4.2 1.9 5.7l13.7 16.8v2.2h-39v-2.2l13.8-16.7c1.5-1.5 1.8-3.3 1.8-5.7l-.1-58.2z"/></symbol>

  <symbol id="pinterest" viewBox="0 0 24 24"><path d="M5.9 13.9c1.2-2-.4-2.5-.6-4-1-6.1 7.1-10.2 11.4-6 2.9 2.9 1 12-3.7 11-4.6-.9 2.2-8.1-1.4-9.5-3-1.1-4.6 3.6-3.2 5.9-.8 4-2.5 7.7-1.8 12.7 2.3-1.7 3.1-4.8 3.7-8.1 1.2.7 1.8 1.4 3.3 1.5 5.5.4 8.6-5.4 7.8-10.7-.7-4.7-5.5-7.1-10.6-6.6-4.1.4-8.1 3.7-8.3 8.3-.1 2.8.7 4.9 3.4 5.5z"/></symbol>

  <symbol id="stumbleupon" viewBox="0 0 24 24"><path d="M13.3 9.6l1.6.8 2.5-.8v-1.4c0-3-2.4-5.4-5.4-5.4s-5.4 2.4-5.4 5.4v7.5c0 .7-.6 1.3-1.3 1.3s-1.3-.6-1.3-1.3v-3.2h-4v3.2c0 3 2.4 5.4 5.4 5.4s5.4-2.4 5.4-5.4v-7.5c0-.7.6-1.3 1.3-1.3s1.3.6 1.3 1.3l-.1 1.4zm6.6 2.9v3.2c0 .7-.6 1.3-1.3 1.3s-1.3-.6-1.3-1.3v-3.2l-2.5.8-1.6-.8v3.2c0 3 2.4 5.4 5.4 5.4s5.4-2.4 5.4-5.4v-3.2h-4.1z"/></symbol>

  <symbol id="twitter" viewBox="0 1 24 23"><path d="M21.5 7.6v.6c0 6.6-5 14.1-14 14.1-2.8 0-5.4-.8-7.6-2.2l1.2.1c2.3 0 4.4-.8 6.1-2.1-2.2 0-4-1.5-4.6-3.4.3.1.6.1.9.1.5 0 .9-.1 1.3-.2-2.1-.6-3.8-2.6-3.8-5 .7.4 1.4.6 2.2.6-1.3-.9-2.2-2.4-2.2-4.1 0-.9.2-1.8.7-2.5 2.4 3 6.1 5 10.2 5.2-.1-.4-.1-.7-.1-1.1 0-2.7 2.2-5 4.9-5 1.4 0 2.7.6 3.6 1.6 1-.3 2.1-.7 3-1.3-.4 1.2-1.1 2.1-2.2 2.7 1-.1 1.9-.4 2.8-.8-.6 1.1-1.4 2-2.4 2.7z"/></symbol>

  <symbol id="tumblr" viewBox="0 0 23 23"><path d="M12.573 4.94v-4.94h-3.188c-.072.183-.11.4-.11.622-.034.107-.072.184-.072.293-.328 1.829-1.28 3.11-2.892 3.807-.476.218-.914.253-1.39.218v3.987h2.342c.039 5.603.039 8.493.039 8.64v.332c.294 2.449 1.573 3.914 3.843 4.463.914.257 1.901.366 2.892.366 1.279-.036 2.525-.256 3.771-.659v-4.685c-.731.22-1.395.402-1.977.583-1.135.333-2.087.113-2.857-.619-.073-.11-.183-.257-.221-.403-.106-.586-.178-1.206-.178-1.795v-6.222h5.083v-3.988h-5.085z"/></symbol>

  <symbol id="xing" viewBox="0 0 24 24"><path d="M3.647 4.74c-.208 0-.384.073-.472.216-.091.148-.077.338.02.531l2.34 4.051v.02l-3.678 6.49c-.096.191-.091.383 0 .531.088.142.244.236.452.236h3.461c.518 0 .767-.349.944-.669l3.737-6.608-2.38-4.15c-.172-.307-.433-.649-.964-.649h-3.46zm14.542-4.74c-.517 0-.741.326-.927.659l-7.702 13.658 4.918 9.023c.172.307.437.659.967.659h3.457c.208 0 .371-.079.459-.221.092-.148.09-.343-.007-.535l-4.88-8.915v-.023l7.664-13.551c.096-.191.098-.386.007-.534-.088-.142-.252-.221-.46-.221h-3.496z"/></symbol>

  <symbol id="whatsapp" viewBox="0 0 512 512"><path d="M256.064 0h-.128c-141.152 0-255.936 114.816-255.936 256 0 56 18.048 107.904 48.736 150.048l-31.904 95.104 98.4-31.456c40.48 26.816 88.768 42.304 140.832 42.304 141.152 0 255.936-114.848 255.936-256s-114.784-256-255.936-256zm148.96 361.504c-6.176 17.44-30.688 31.904-50.24 36.128-13.376 2.848-30.848 5.12-89.664-19.264-75.232-31.168-123.68-107.616-127.456-112.576-3.616-4.96-30.4-40.48-30.4-77.216s18.656-54.624 26.176-62.304c6.176-6.304 16.384-9.184 26.176-9.184 3.168 0 6.016.16 8.576.288 7.52.32 11.296.768 16.256 12.64 6.176 14.88 21.216 51.616 23.008 55.392 1.824 3.776 3.648 8.896 1.088 13.856-2.4 5.12-4.512 7.392-8.288 11.744-3.776 4.352-7.36 7.68-11.136 12.352-3.456 4.064-7.36 8.416-3.008 15.936 4.352 7.36 19.392 31.904 41.536 51.616 28.576 25.44 51.744 33.568 60.032 37.024 6.176 2.56 13.536 1.952 18.048-2.848 5.728-6.176 12.8-16.416 20-26.496 5.12-7.232 11.584-8.128 18.368-5.568 6.912 2.4 43.488 20.48 51.008 24.224 7.52 3.776 12.48 5.568 14.304 8.736 1.792 3.168 1.792 18.048-4.384 35.52z"/></symbol>

  <symbol id="youtube" viewBox="0 0 24 24"><path d="M23.6 6.3c-.3-1.2-1.4-2.2-2.6-2.3-3-.3-6-.3-9-.3s-6 0-9 .3c-1.2.1-2.3 1.1-2.6 2.3-.4 1.8-.4 3.8-.4 5.7 0 1.9 0 3.9.4 5.7.3 1.2 1.4 2.2 2.6 2.3 3 .3 6 .3 9 .3s6 0 9-.3c1.3-.1 2.3-1.1 2.6-2.4.4-1.7.4-3.7.4-5.6 0-1.9 0-3.9-.4-5.7zm-14.1 9v-6.6l6.5 3.3-6.5 3.3z"/></symbol>

</svg>
