<?xml version="1.0" encoding="UTF-8" standalone="no"?>
<svg
   xmlns:dc="http://purl.org/dc/elements/1.1/"
   xmlns:cc="http://creativecommons.org/ns#"
   xmlns:rdf="http://www.w3.org/1999/02/22-rdf-syntax-ns#"
   xmlns:svg="http://www.w3.org/2000/svg"
   xmlns="http://www.w3.org/2000/svg"
   xmlns:sodipodi="http://sodipodi.sourceforge.net/DTD/sodipodi-0.dtd"
   xmlns:inkscape="http://www.inkscape.org/namespaces/inkscape"
   version="1.1"
   id="Layer_1"
   x="0px"
   y="0px"
   width="96px"
   height="96px"
   viewBox="0 0 96 96"
   enable-background="new 0 0 96 96"
   xml:space="preserve"
   sodipodi:docname="swipe.svg"
   inkscape:version="0.92.3 (2405546, 2018-03-11)"><metadata
   id="metadata8"><rdf:RDF><cc:Work
       rdf:about=""><dc:format>image/svg+xml</dc:format><dc:type
         rdf:resource="http://purl.org/dc/dcmitype/StillImage" /></cc:Work></rdf:RDF></metadata><defs
   id="defs6" /><sodipodi:namedview
   pagecolor="#ffffff"
   bordercolor="#666666"
   borderopacity="1"
   objecttolerance="10"
   gridtolerance="10"
   guidetolerance="10"
   inkscape:pageopacity="0"
   inkscape:pageshadow="2"
   inkscape:window-width="1780"
   inkscape:window-height="1046"
   id="namedview4"
   showgrid="false"
   inkscape:zoom="8.3448893"
   inkscape:cx="48"
   inkscape:cy="48"
   inkscape:window-x="-11"
   inkscape:window-y="-11"
   inkscape:window-maximized="1"
   inkscape:current-layer="Layer_1" />  <path
   style="fill:#ffffff;fill-opacity:1"
   d="M 36.126989,73.535302 C 32.453914,68.145313 31.64507,66.065991 31.07355,60.54426 30.194826,52.054478 31.543949,48.635644 36.406086,47.030995 L 40,45.844896 V 33.577435 c 0,-10.614524 0.246407,-12.490455 1.828741,-13.922447 2.304694,-2.08572 5.561857,-2.121533 7.59983,-0.08356 C 50.608555,20.751412 51,23.242424 51,29.571429 51,37.840896 51.046078,38 53.440983,38 c 1.342541,0 2.720119,0.451652 3.061285,1.00367 0.341167,0.552019 1.742638,0.721983 3.11438,0.377697 1.737689,-0.436132 3.159654,-0.02213 4.688715,1.365091 1.20705,1.095085 3.416011,2.279648 4.908801,2.632361 C 72.981122,44.268867 74.410688,49.920716 73.671228,61 72.904761,72.483925 70.603672,80 67.854271,80 66.407379,80 65.962656,79.5397 66.373965,78.467846 69.521196,70.266293 71.208016,54.381482 69.502381,49.007502 68.493289,45.828134 66,46.534678 66,50 c 0,1.94945 -0.506088,3 -1.445209,3 -1.014198,0 -1.536108,-1.413929 -1.75,-4.741006 -0.225182,-3.502693 -0.746072,-4.82476 -1.99428,-5.06167 -1.338819,-0.254108 -1.753938,0.574264 -2,3.991005 C 58.592451,50.216254 58.053394,51.5 57,51.5 c -1.082955,0 -1.585448,-1.337958 -1.807335,-4.812282 -0.248452,-3.890295 -0.631633,-4.7508 -2,-4.491374 -1.211014,0.229594 -1.780164,1.5278 -2.000163,4.562283 C 50.944022,50.185952 50.512179,51 48.942502,51 47.108476,51 47,50.190267 47,36.5 47,24.277778 46.764368,22 45.5,22 44.219298,22 44,24.777778 44,41 c 0,18.333333 -0.07017,19 -2,19 -1.733333,0 -2,-0.666667 -2,-5 0,-5.424234 -0.412493,-5.800234 -3.777494,-3.443296 -4.333936,3.035607 -2.72759,11.317445 4.186486,21.584258 4.075743,6.052131 4.295657,6.868621 1.841008,6.835238 -1.01587,-0.01382 -3.584491,-2.715791 -6.123011,-6.440898 z M 19.139564,25.643994 15.886795,22.287987 18.532291,19.143994 C 21.58906,15.511231 25.52966,14.755828 24.5,18 23.917111,19.836521 24.3203,20 29.432612,20 34.333333,20 35,20.23949 35,22 c 0,1.782222 -0.666667,2 -6.122445,2 -5.246935,0 -5.949624,0.208236 -4.91391,1.456195 C 25.137888,26.871071 24.641374,29 23.13715,29 22.727501,29 20.928587,27.489797 19.139564,25.643994 Z M 67.410644,26.5 C 68.023164,24.059524 67.906697,24 62.519052,24 57.666667,24 57,23.758413 57,22 c 0,-1.753378 0.666667,-2 5.40638,-2 4.914051,0 5.358753,-0.182129 4.883369,-2 -0.769059,-2.940887 1.834197,-2.523841 5.02316,0.804719 3.360662,3.507775 3.350037,4.185956 -0.117628,7.50819 C 68.58323,29.773474 66.569289,29.852224 67.410644,26.5 Z"
   id="path815"
   inkscape:connector-curvature="0" />
</svg>